<?xml version="1.0" encoding="UTF-8" standalone="no"?>
<svg width="60px" height="64px" viewBox="0 0 60 64" version="1.1" xmlns="http://www.w3.org/2000/svg" xmlns:xlink="http://www.w3.org/1999/xlink">
    <!-- Generator: Sketch 3.8.3 (29802) - http://www.bohemiancoding.com/sketch -->
    <title>icon_ux</title>
    <desc>Created with Sketch.</desc>
    <defs></defs>
    <g id="Page-1" stroke="none" stroke-width="1" fill="none" fill-rule="evenodd">
        <g id="Layout-Alternative" transform="translate(-961.000000, -2199.000000)" stroke="#363F40" stroke-width="2">
            <g id="icon_ux" transform="translate(962.000000, 2200.000000)">
                <path d="M42,34 L42,37" id="Stroke-1"></path>
                <path d="M37,33 L37,36" id="Stroke-2"></path>
                <path d="M32,31 L32,35" id="Stroke-3"></path>
                <g id="Group-28">
                    <path d="M26,63 L26,59 C26,58.447 26.447,58 27,58 L46,58 C46.553,58 47,58.447 47,59 L47,63" id="Stroke-4"></path>
                    <path d="M44,32 C45.656,32 47,33.344 47,35 L47,42 C47,49 45,53 45,55 L45,58" id="Stroke-6" stroke-linejoin="round"></path>
                    <path d="M39,30 C40.656,30 42,31.344 42,33 L42,35" id="Stroke-8" stroke-linejoin="round"></path>
                    <path d="M34,28 C35.656,28 37,29.344 37,31 L37,33" id="Stroke-10" stroke-linejoin="round"></path>
                    <path d="M26,40 L26,19 C26,17.344 27.344,16 29,16 C30.656,16 32,17.344 32,19 L32,31" id="Stroke-12" stroke-linecap="round" stroke-linejoin="round"></path>
                    <path d="M28,58 L28,55 L22,47 C22,47 18.707,34.707 18,34 C17,33 18,31 20,31 C22,31 23,34 23,34 L26,40" id="Stroke-14" stroke-linejoin="round"></path>
                    <path d="M26.0039,25.3281 C23.6369,24.2051 21.9999,21.7941 21.9999,19.0001 C21.9999,15.1341 25.1339,12.0001 28.9999,12.0001 C32.8659,12.0001 35.9999,15.1341 35.9999,19.0001 C35.9999,21.7931 34.3649,24.2031 31.9999,25.3261" id="Stroke-16" stroke-linejoin="round"></path>
                    <path d="M19.7778,25 C18.6528,23.273 17.9998,21.213 17.9998,19 C17.9998,12.925 22.9248,8 28.9998,8 C35.0748,8 39.9998,12.925 39.9998,19 C39.9998,21.214 39.3458,23.274 38.2208,25" id="Stroke-18" stroke-linejoin="round"></path>
                    <path d="M14,19 C14,10.716 20.716,4 29,4 C37.284,4 44,10.716 44,19" id="Stroke-20" stroke-linejoin="round"></path>
                    <path d="M14,38 L1,38 C0.448,38 0,37.553 0,37 L0,1 C0,0.447 0.448,0 1,0 L57,0 C57.552,0 58,0.447 58,1 L58,37 C58,37.553 57.552,38 57,38 L50,38" id="Stroke-22" stroke-linejoin="round"></path>
                    <path d="M4,38 L4,3" id="Stroke-24" stroke-linejoin="round"></path>
                    <path d="M54,35 L54,0" id="Stroke-26" stroke-linejoin="round"></path>
                </g>
            </g>
        </g>
    </g>
</svg>