<?xml version="1.0" encoding="UTF-8" standalone="no"?>
<svg width="57px" height="65px" viewBox="0 0 57 65" version="1.1" xmlns="http://www.w3.org/2000/svg" xmlns:xlink="http://www.w3.org/1999/xlink">
    <!-- Generator: Sketch 3.8.3 (29802) - http://www.bohemiancoding.com/sketch -->
    <title>icon_productdesign</title>
    <desc>Created with Sketch.</desc>
    <defs></defs>
    <g id="Page-1" stroke="none" stroke-width="1" fill="none" fill-rule="evenodd">
        <g id="Layout-Alternative" transform="translate(-197.000000, -2478.000000)" stroke="#363F40" stroke-width="2">
            <g id="icon_productdesign" transform="translate(198.000000, 2479.000000)">
                <path d="M7,47 L32,47" id="Stroke-1"></path>
                <path d="M7,51 L32,51" id="Stroke-2"></path>
                <path d="M7,55 L32,55" id="Stroke-3"></path>
                <path d="M7,59 L32,59" id="Stroke-4"></path>
                <g id="Group-23">
                    <polyline id="Stroke-5" points="22.4074074 58.9354839 22.4074074 63 16.2962963 63 16.2962963 58.9354839"></polyline>
                    <path d="M28.5185185,58.9354839 L28.5185185,36.5806452 C34.5837963,33.3209032 38.7037037,26.6611935 38.7037037,19.3064516 C38.7037037,8.64420968 30.0391667,0 19.3518519,0 C8.66453704,0 0,8.64420968 0,19.3064516 C0,26.6764355 4.09953704,33.327 10.1851852,36.5806452 L10.1851852,58.9354839" id="Stroke-7"></path>
                    <path d="M16.2962963,46.7419355 L16.2962963,36.5806452" id="Stroke-9"></path>
                    <path d="M22.4074074,46.7419355 L22.4074074,36.5806452" id="Stroke-11"></path>
                    <path d="M19.3518519,19.3064516 L50.9259259,19.3064516" id="Stroke-13"></path>
                    <polygon id="Stroke-15" stroke-linejoin="round" points="41.7592593 19.3064516 45.8333333 15.2419355 55 15.2419355 50.9259259 19.3064516 55 23.3709677 45.8333333 23.3709677"></polygon>
                    <path d="M32.5925926,19.3064516 C32.5925926,26.6022581 26.6648148,32.516129 19.3518519,32.516129 C12.0388889,32.516129 6.11111111,26.6022581 6.11111111,19.3064516 C6.11111111,12.0106452 12.0388889,6.09677419 19.3518519,6.09677419 C26.6648148,6.09677419 32.5925926,12.0106452 32.5925926,19.3064516 L32.5925926,19.3064516 Z" id="Stroke-17"></path>
                    <path d="M26.4814815,19.3064516 C26.4814815,23.2348065 23.2894444,26.4193548 19.3518519,26.4193548 C15.4142593,26.4193548 12.2222222,23.2348065 12.2222222,19.3064516 C12.2222222,15.3780968 15.4142593,12.1935484 19.3518519,12.1935484 C23.2894444,12.1935484 26.4814815,15.3780968 26.4814815,19.3064516 L26.4814815,19.3064516 Z" id="Stroke-19"></path>
                    <path d="M20.3703704,19.3064516 C20.3703704,19.868371 19.9150926,20.3225806 19.3518519,20.3225806 C18.7886111,20.3225806 18.3333333,19.868371 18.3333333,19.3064516 C18.3333333,18.7445323 18.7886111,18.2903226 19.3518519,18.2903226 C19.9150926,18.2903226 20.3703704,18.7445323 20.3703704,19.3064516 L20.3703704,19.3064516 Z" id="Stroke-21"></path>
                </g>
            </g>
        </g>
    </g>
</svg>