<?xml version="1.0" encoding="UTF-8" standalone="no"?>
<svg width="65px" height="65px" viewBox="0 0 65 65" version="1.1" xmlns="http://www.w3.org/2000/svg" xmlns:xlink="http://www.w3.org/1999/xlink">
    <!-- Generator: Sketch 3.8.3 (29802) - http://www.bohemiancoding.com/sketch -->
    <title>icon_team</title>
    <desc>Created with Sketch.</desc>
    <defs></defs>
    <g id="Page-1" stroke="none" stroke-width="1" fill="none" fill-rule="evenodd">
        <g id="Layout-Alternative" transform="translate(-958.000000, -2476.000000)" stroke-width="2" stroke="#363F40">
            <g id="icon_team" transform="translate(959.000000, 2477.000000)">
                <polyline id="Stroke-1" points="13 54 20 58 28 54"></polyline>
                <g id="Group-32">
                    <path d="M55.8870968,53.8548387 L63,57.9193548 L63,59.9516129 C63,61.6353387 61.983871,63 60.9677419,63 L2.03225806,63 C1.01612903,63 0,61.6353387 0,59.9516129 L0,57.9193548 L7.11290323,53.8548387" id="Stroke-2"></path>
                    <polyline id="Stroke-4" points="34.5483871 53.8548387 42.6774194 57.9193548 49.7903226 53.8548387"></polyline>
                    <path d="M15.2419355,48.266129 C15.2419355,51.8225806 13.2472742,54.8709677 10.1612903,54.8709677 C7.07530645,54.8709677 5.08064516,51.8225806 5.08064516,48.266129 C5.08064516,44.7096774 6.09677419,42.6774194 10.1612903,42.6774194 C14.2258065,42.6774194 15.2419355,44.7096774 15.2419355,48.266129 L15.2419355,48.266129 Z" id="Stroke-6"></path>
                    <path d="M36.5806452,48.266129 C36.5806452,51.8225806 34.5859839,54.8709677 31.5,54.8709677 C28.4140161,54.8709677 26.4193548,51.8225806 26.4193548,48.266129 C26.4193548,44.7096774 27.4354839,42.6774194 31.5,42.6774194 C35.5645161,42.6774194 36.5806452,44.7096774 36.5806452,48.266129 L36.5806452,48.266129 Z" id="Stroke-8"></path>
                    <path d="M57.9193548,48.266129 C57.9193548,51.8225806 55.9246935,54.8709677 52.8387097,54.8709677 C49.7527258,54.8709677 47.7580645,51.8225806 47.7580645,48.266129 C47.7580645,44.7096774 48.7741935,42.6774194 52.8387097,42.6774194 C56.9032258,42.6774194 57.9193548,44.7096774 57.9193548,48.266129 L57.9193548,48.266129 Z" id="Stroke-10"></path>
                    <path d="M20.3225806,57.9193548 L20.3225806,60.9677419" id="Stroke-12"></path>
                    <path d="M42.6774194,57.9193548 L42.6774194,60.9677419" id="Stroke-14"></path>
                    <path d="M1.01612903,32.516129 L4.06451613,32.516129 L10.1612903,38.6129032 L16.2580645,32.516129 L25.4032258,32.516129 L31.5,38.6129032 L37.5967742,32.516129 L46.7419355,32.516129 L52.8387097,38.6129032 L58.9354839,32.516129 L61.983871,32.516129 C62.5457903,32.516129 63,32.0619194 63,31.5 L63,1.01612903 C63,0.454209677 62.5457903,0 61.983871,0 L1.01612903,0 C0.454209677,0 0,0.454209677 0,1.01612903 L0,31.5 C0,32.0619194 0.454209677,32.516129 1.01612903,32.516129 L1.01612903,32.516129 Z" id="Stroke-16" stroke-linejoin="round"></path>
                    <polygon id="Stroke-18" points="34.5483871 5.08064516 31.5 14.2258065 38.6129032 14.2258065 38.6129032 15.2419355 30.483871 27.4354839 28.4516129 27.4354839 31.5 18.2903226 23.3709677 18.2903226 23.3709677 17.2741935 32.516129 5.08064516"></polygon>
                    <path d="M7.11290323,17.2741935 L9.14516129,17.2741935" id="Stroke-20"></path>
                    <path d="M11.1774194,17.2741935 L13.2096774,17.2741935" id="Stroke-22"></path>
                    <path d="M15.2419355,17.2741935 L17.2741935,17.2741935" id="Stroke-24"></path>
                    <path d="M45.7258065,17.2741935 L47.7580645,17.2741935" id="Stroke-26"></path>
                    <path d="M49.7903226,17.2741935 L51.8225806,17.2741935" id="Stroke-28"></path>
                    <path d="M53.8548387,17.2741935 L55.8870968,17.2741935" id="Stroke-30"></path>
                </g>
            </g>
        </g>
    </g>
</svg>