<?xml version="1.0" encoding="UTF-8" standalone="no"?>
<svg width="70px" height="70px" viewBox="0 0 70 70" version="1.1" xmlns="http://www.w3.org/2000/svg" xmlns:xlink="http://www.w3.org/1999/xlink">
    <!-- Generator: Sketch 3.8.3 (29802) - http://www.bohemiancoding.com/sketch -->
    <title>icon_softarchitecture</title>
    <desc>Created with Sketch.</desc>
    <defs></defs>
    <g id="Page-1" stroke="none" stroke-width="1" fill="none" fill-rule="evenodd" stroke-linejoin="round">
        <g id="Layout-Alternative" transform="translate(-566.000000, -2197.000000)" stroke="#363F40" stroke-width="2">
            <g id="icon_softarchitecture" transform="translate(567.000000, 2198.000000)">
                <path d="M24.1290323,43.8709677 L24.1290323,65.8064516" id="Stroke-1"></path>
                <path d="M30.7096774,43.8709677 L30.7096774,68" id="Stroke-3"></path>
                <path d="M37.2903226,43.8709677 L37.2903226,68" id="Stroke-5"></path>
                <path d="M43.8709677,43.8709677 L43.8709677,65.8064516" id="Stroke-7"></path>
                <path d="M24.1290323,28.516129 C24.1290323,30.3334839 22.6549677,31.8064516 20.8387097,31.8064516 C19.0224516,31.8064516 17.5483871,30.3334839 17.5483871,28.516129 C17.5483871,26.699871 19.0224516,25.2258065 20.8387097,25.2258065" id="Stroke-9"></path>
                <path d="M47.1612903,25.2258065 C48.9775484,25.2258065 50.4516129,26.699871 50.4516129,28.516129 C50.4516129,30.3334839 48.9775484,31.8064516 47.1612903,31.8064516 C45.3450323,31.8064516 43.8709677,30.3334839 43.8709677,28.516129" id="Stroke-11"></path>
                <path d="M20.8387097,25.2258065 L47.1612903,25.2258065" id="Stroke-13"></path>
                <path d="M20.8387097,20.8387097 L47.1612903,20.8387097" id="Stroke-15"></path>
                <path d="M43.8709677,39.483871 C43.8709677,37.6676129 45.3450323,36.1935484 47.1612903,36.1935484" id="Stroke-17"></path>
                <path d="M20.8387097,36.1935484 C22.6549677,36.1935484 24.1290323,37.6676129 24.1290323,39.483871" id="Stroke-19"></path>
                <path d="M30.7096774,39.483871 C30.7096774,37.6676129 32.1837419,36.1935484 34,36.1935484 C35.8162581,36.1935484 37.2903226,37.6676129 37.2903226,39.483871" id="Stroke-21"></path>
                <path d="M20.8387097,40.5806452 L47.1612903,40.5806452" id="Stroke-23"></path>
                <path d="M31.8064516,29.6129032 L36.1935484,29.6129032" id="Stroke-25"></path>
                <path d="M28.516129,32.9032258 C28.516129,31.0869677 29.9890968,29.6129032 31.8064516,29.6129032" id="Stroke-27"></path>
                <path d="M36.1935484,29.6129032 C38.0109032,29.6129032 39.483871,31.0869677 39.483871,32.9032258" id="Stroke-29"></path>
                <path d="M34,29.6129032 L34,36.1935484" id="Stroke-31"></path>
                <path d="M68,34 C68,52.777871 52.777871,68 34,68 C15.222129,68 0,52.777871 0,34 C0,15.222129 15.222129,0 34,0 C52.777871,0 68,15.222129 68,34 L68,34 Z" id="Stroke-33"></path>
                <path d="M18.6473548,59.3275871 C10.098,54.1343613 4.38709677,44.7339097 4.38709677,33.9997806 C4.38709677,17.6446839 17.6449032,4.38687742 34,4.38687742 C50.3550968,4.38687742 63.6129032,17.6446839 63.6129032,33.9997806 C63.6129032,44.7328129 57.9030968,54.1321677 49.3548387,59.3264903" id="Stroke-35"></path>
            </g>
        </g>
    </g>
</svg>