<?xml version="1.0" encoding="UTF-8" standalone="no"?>
<svg width="64px" height="60px" viewBox="0 0 64 60" version="1.1" xmlns="http://www.w3.org/2000/svg" xmlns:xlink="http://www.w3.org/1999/xlink">
    <!-- Generator: Sketch 3.8.3 (29802) - http://www.bohemiancoding.com/sketch -->
    <title>icon_appdev</title>
    <desc>Created with Sketch.</desc>
    <defs></defs>
    <g id="Page-1" stroke="none" stroke-width="1" fill="none" fill-rule="evenodd">
        <g id="Layout-Alternative" transform="translate(-178.000000, -2201.000000)" stroke="#363F40" stroke-width="2">
            <g id="icon_appdev" transform="translate(179.000000, 2202.000000)">
                <path d="M32,53 L32,5 C32,2.238 29.762,0 27,0 L5,0 C2.238,0 0,2.238 0,5 L0,53 C0,55.762 2.238,58 5,58 L27,58 C29.762,58 32,55.762 32,53 L32,53 Z" id="Stroke-1"></path>
                <path d="M32,50 L0,50" id="Stroke-3"></path>
                <path d="M0,12 L32,12" id="Stroke-5"></path>
                <path d="M14,54 L18,54" id="Stroke-7"></path>
                <path d="M11,6 L9,6" id="Stroke-9"></path>
                <path d="M13,6 L23,6" id="Stroke-11"></path>
                <path d="M15,40 L17,40" id="Stroke-13"></path>
                <path d="M11,40 L13,40" id="Stroke-15"></path>
                <path d="M19,40 L21,40" id="Stroke-17"></path>
                <path d="M9,44 L23,44" id="Stroke-19"></path>
                <path d="M25,27 C25,31.971 20.971,36 16,36 C11.029,36 7,31.971 7,27 C7,22.029 11.029,18 16,18 C20.971,18 25,22.029 25,27 L25,27 Z" id="Stroke-21"></path>
                <path d="M19,25 C19,26.657 17.656,28 16,28 C14.344,28 13,26.657 13,25 C13,23.343 14.344,22 16,22 C17.656,22 19,23.343 19,25 L19,25 Z" id="Stroke-23"></path>
                <path d="M20,35 L20,32 C20,29.791 18.209,28 16,28 C13.791,28 12,29.791 12,32 L12,35" id="Stroke-25"></path>
                <polyline id="Stroke-27" points="35 0 62 0 62 58 35 58"></polyline>
                <path d="M35,8 L62,8" id="Stroke-29"></path>
                <path d="M35,4 L59,4" id="Stroke-31"></path>
                <polyline id="Stroke-33" points="35 12 58 12 58 54 35 54"></polyline>
                <polyline id="Stroke-35" points="35 22 52 22 52 28 35 28"></polyline>
                <path d="M53,18 L45,18" id="Stroke-37"></path>
                <path d="M52,36 C52,38.209 50.209,40 48,40 C45.791,40 44,38.209 44,36 C44,33.791 45.791,32 48,32 C50.209,32 52,33.791 52,36 L52,36 Z" id="Stroke-39"></path>
                <path d="M35,32 C37.209,32 39,33.791 39,36 C39,38.209 37.209,40 35,40" id="Stroke-41"></path>
                <path d="M35,44 L40,44" id="Stroke-43"></path>
                <path d="M43,44 L53,44" id="Stroke-45"></path>
                <path d="M35,48 L40,48" id="Stroke-47"></path>
                <path d="M43,48 L53,48" id="Stroke-49"></path>
            </g>
        </g>
    </g>
</svg>