<?xml version="1.0" encoding="UTF-8" standalone="no"?>
<svg width="66px" height="66px" viewBox="0 0 66 66" version="1.1" xmlns="http://www.w3.org/2000/svg" xmlns:xlink="http://www.w3.org/1999/xlink">
    <!-- Generator: Sketch 3.8.3 (29802) - http://www.bohemiancoding.com/sketch -->
    <title>icon_strategy</title>
    <desc>Created with Sketch.</desc>
    <defs></defs>
    <g id="Page-1" stroke="none" stroke-width="1" fill="none" fill-rule="evenodd" stroke-linejoin="round">
        <g id="Layout-Alternative" transform="translate(-568.000000, -2476.000000)" stroke-width="2" stroke="#363F40">
            <g id="icon_strategy" transform="translate(568.000000, 2477.000000)">
                <polyline id="Stroke-1" points="12.9960013 48.8928571 1 52 1 23 13 26.1081786"></polyline>
                <path d="M65,37.5 C65,37.5 61.9032258,52 33,52 C4.09677419,52 1,37.5 1,37.5 C1,37.5 4.09677419,23 33,23 C61.9032258,23 65,37.5 65,37.5 L65,37.5 Z" id="Stroke-3"></path>
                <path d="M65,37 C65,40.866 50.6732903,44 33,44 C15.3267097,44 1,40.866 1,37 C1,33.134 15.3267097,30 33,30 C50.6732903,30 65,33.134 65,37 L65,37 Z" id="Stroke-5"></path>
                <path d="M1,37 L65,37" id="Stroke-7"></path>
                <path d="M23,22 L23,56" id="Stroke-9"></path>
                <path d="M43,22 L43,56" id="Stroke-11"></path>
                <polygon id="Stroke-13" points="43.8571429 64 23.1428571 64 19 56 48 56"></polygon>
                <path d="M34,60 L32,60" id="Stroke-15"></path>
                <path d="M38,60 L36,60" id="Stroke-17"></path>
                <path d="M30,60 L28,60" id="Stroke-19"></path>
                <path d="M16,62 L6,62" id="Stroke-21"></path>
                <path d="M0,58 L6,58" id="Stroke-23"></path>
                <path d="M60.0445,26 C60.6559792,24.7468 61,23.33344 61,21.84 C61,16.67016 56.8860417,12.48 51.8125,12.48 L50.7916667,12.48 C51.4317292,11.61056 51.8125,10.53104 51.8125,9.36 C51.8125,6.48752 49.5268542,4.16 46.7083333,4.16 C45.558875,4.16 44.4982292,4.54688 43.6458333,5.2 C41.3622292,2.25888 38.0281875,0 33.4375,0 C26.6724375,0 21.1875,5.58792 21.1875,12.48 C16.1129375,12.48 12,16.67016 12,21.84" id="Stroke-25"></path>
                <path d="M66,60 L56,60" id="Stroke-27"></path>
                <path d="M4,62 L2,62" id="Stroke-29"></path>
                <path d="M54,60 L50,60" id="Stroke-31"></path>
                <path d="M14,58 L8,58" id="Stroke-33"></path>
            </g>
        </g>
    </g>
</svg>