<?xml version="1.0" encoding="UTF-8" standalone="no"?>
<svg
   xmlns:dc="http://purl.org/dc/elements/1.1/"
   xmlns:cc="http://creativecommons.org/ns#"
   xmlns:rdf="http://www.w3.org/1999/02/22-rdf-syntax-ns#"
   xmlns:svg="http://www.w3.org/2000/svg"
   xmlns="http://www.w3.org/2000/svg"
   xmlns:sodipodi="http://sodipodi.sourceforge.net/DTD/sodipodi-0.dtd"
   xmlns:inkscape="http://www.inkscape.org/namespaces/inkscape"
   viewBox="0 0 450 152"
   height="152"
   width="450"
   xml:space="preserve"
   id="svg2"
   version="1.1"
   inkscape:version="0.91 r13725"
   sodipodi:docname="madrona_logo.svg"
   inkscape:export-filename="/Users/x77z/source/madrona/mx-mariner-ios-swift/IconSrc/madrona_logo.png"
   inkscape:export-xdpi="113.68421"
   inkscape:export-ydpi="113.68421"><sodipodi:namedview
     pagecolor="#595959"
     bordercolor="#666666"
     borderopacity="1"
     objecttolerance="10"
     gridtolerance="10"
     guidetolerance="10"
     inkscape:pageopacity="0"
     inkscape:pageshadow="2"
     inkscape:window-width="1676"
     inkscape:window-height="1005"
     id="namedview3424"
     showgrid="false"
     inkscape:zoom="0.95186167"
     inkscape:cx="-13.803122"
     inkscape:cy="206.20967"
     inkscape:window-x="4"
     inkscape:window-y="1"
     inkscape:window-maximized="1"
     inkscape:current-layer="svg2"
     fit-margin-top="2"
     fit-margin-left="2"
     fit-margin-right="2"
     fit-margin-bottom="2" /><metadata
     id="metadata8"><rdf:RDF><cc:Work
         rdf:about=""><dc:format>image/svg+xml</dc:format><dc:type
           rdf:resource="http://purl.org/dc/dcmitype/StillImage" /><dc:title></dc:title></cc:Work></rdf:RDF></metadata><defs
     id="defs6" /><path
     id="path14"
     style="fill:#ffffff;fill-opacity:1;fill-rule:evenodd;stroke:none"
     d="M 49.520082,126.96065 C 80.032535,93.188885 56.968807,40.430895 36.413236,3.5058444 l -2.817515,-4.79559 C 59.697669,36.142295 86.029568,88.389595 56.828444,127.13048 c 33.590387,-1.71451 47.519126,4.6748 68.309266,-16.76684 -9.19317,35.68834 -41.571043,26.92328 -74.603655,24.02552 l -0.08219,0.0851 -0.05174,-0.0967 C 33.410996,132.89535 16.25657,132.98123 2,141.48438 c 6.2962383,-10.5045 15.26131,-14.06134 25.222811,-14.43646 3.426079,-0.37484 7.109813,-0.4863 10.836946,-0.46063 C 20.120381,116.3071 8.0496712,97.098865 8.0496712,75.095285 c 0,-23.94102 14.2888938,-44.57417 34.8814088,-53.99636 14.175299,32.01403 28.854821,82.953695 0.09327,105.591515 2.196941,0.0714 4.37726,0.16992 6.495708,0.27021 z M 4.2689998,146.66774 C 32.58821,131.10437 90.55828,166.53284 110.64196,139.41488 82.551773,153.63811 23.033039,123.22456 4.2689998,146.66774 Z M 68.07634,15.643044 c 33.15174,0 60.02664,26.618181 60.02664,59.452241 0,15.7092 -6.15403,29.993475 -16.20233,40.622635 C 106.96192,97.930915 84.309139,58.444155 50.10002,18.356211 55.775685,16.594225 61.813344,15.643044 68.07634,15.643044"
     inkscape:connector-curvature="0" /><g
     transform="matrix(1.0210073,0,0,1.0210073,175.4058,-424.00633)"
     id="layer1"
     style="fill:#ffffff;fill-opacity:1"><text
       sodipodi:linespacing="125%"
       id="text3344"
       y="563.68481"
       x="-40.090286"
       style="font-style:normal;font-variant:normal;font-weight:normal;font-stretch:normal;font-size:39.17699814px;line-height:125%;font-family:Optima;-inkscape-font-specification:'Optima, Normal';text-align:start;letter-spacing:0px;word-spacing:0px;writing-mode:lr-tb;text-anchor:start;fill:#ffffff;fill-opacity:1;stroke:none;stroke-width:1px;stroke-linecap:butt;stroke-linejoin:miter;stroke-opacity:1"
       xml:space="preserve"><tspan
         y="563.68481"
         x="-40.090286"
         id="tspan3346"
         sodipodi:role="line">Madrona Software</tspan></text>
</g></svg>